<mxfile>
    <diagram id="hdJqdke0FVg75BG2Binw" name="第 1 页">
        <mxGraphModel dx="912" dy="614" grid="1" gridSize="10" guides="1" tooltips="1" connect="1" arrows="1" fold="1" page="1" pageScale="1" pageWidth="3300" pageHeight="4681" math="0" shadow="0">
            <root>
                <mxCell id="0"/>
                <mxCell id="1" parent="0"/>
                <mxCell id="0F4StWGrC1xZ_1egnDAh-2" value="dwt_访客主题(13号数据)" style="rounded=0;whiteSpace=wrap;html=1;direction=south;" parent="1" vertex="1">
                    <mxGeometry x="130" y="100" width="160" height="280" as="geometry"/>
                </mxCell>
                <mxCell id="0F4StWGrC1xZ_1egnDAh-3" value="dws_访客主题(14号数据)" style="rounded=0;whiteSpace=wrap;html=1;direction=south;" parent="1" vertex="1">
                    <mxGeometry x="370" y="200" width="160" height="240" as="geometry"/>
                </mxCell>
                <mxCell id="0F4StWGrC1xZ_1egnDAh-4" value="dws_访客主题(7天前数据)" style="rounded=0;whiteSpace=wrap;html=1;direction=south;" parent="1" vertex="1">
                    <mxGeometry x="640" y="110" width="160" height="240" as="geometry"/>
                </mxCell>
                <mxCell id="0F4StWGrC1xZ_1egnDAh-5" value="dws_访客主题(30天前数据)" style="rounded=0;whiteSpace=wrap;html=1;direction=south;" parent="1" vertex="1">
                    <mxGeometry x="860" y="110" width="160" height="240" as="geometry"/>
                </mxCell>
                <mxCell id="0F4StWGrC1xZ_1egnDAh-6" value="full join" style="text;html=1;strokeColor=none;fillColor=none;align=center;verticalAlign=middle;whiteSpace=wrap;rounded=0;" parent="1" vertex="1">
                    <mxGeometry x="310" y="270" width="40" height="20" as="geometry"/>
                </mxCell>
                <mxCell id="0F4StWGrC1xZ_1egnDAh-7" value="left join" style="text;html=1;strokeColor=none;fillColor=none;align=center;verticalAlign=middle;whiteSpace=wrap;rounded=0;" parent="1" vertex="1">
                    <mxGeometry x="560" y="250" width="50" height="20" as="geometry"/>
                </mxCell>
                <mxCell id="0F4StWGrC1xZ_1egnDAh-9" value="left join" style="text;html=1;strokeColor=none;fillColor=none;align=center;verticalAlign=middle;whiteSpace=wrap;rounded=0;" parent="1" vertex="1">
                    <mxGeometry x="810" y="220" width="50" height="30" as="geometry"/>
                </mxCell>
                <mxCell id="0F4StWGrC1xZ_1egnDAh-10" value="" style="endArrow=classic;html=1;exitX=1;exitY=0.5;exitDx=0;exitDy=0;" parent="1" source="0F4StWGrC1xZ_1egnDAh-3" edge="1">
                    <mxGeometry width="50" height="50" relative="1" as="geometry">
                        <mxPoint x="500" y="550" as="sourcePoint"/>
                        <mxPoint x="340" y="610" as="targetPoint"/>
                    </mxGeometry>
                </mxCell>
                <mxCell id="0F4StWGrC1xZ_1egnDAh-11" value="" style="endArrow=classic;html=1;exitX=0.998;exitY=0.563;exitDx=0;exitDy=0;exitPerimeter=0;" parent="1" source="0F4StWGrC1xZ_1egnDAh-2" edge="1">
                    <mxGeometry width="50" height="50" relative="1" as="geometry">
                        <mxPoint x="210" y="520" as="sourcePoint"/>
                        <mxPoint x="340" y="610" as="targetPoint"/>
                    </mxGeometry>
                </mxCell>
                <mxCell id="0F4StWGrC1xZ_1egnDAh-13" value="把旧表前30天的数据和新表一天的数据full join" style="whiteSpace=wrap;html=1;aspect=fixed;" parent="1" vertex="1">
                    <mxGeometry x="290" y="610" width="80" height="80" as="geometry"/>
                </mxCell>
                <mxCell id="0F4StWGrC1xZ_1egnDAh-14" value="旧表" style="text;html=1;strokeColor=none;fillColor=none;align=center;verticalAlign=middle;whiteSpace=wrap;rounded=0;" parent="1" vertex="1">
                    <mxGeometry x="190" y="300" width="40" height="20" as="geometry"/>
                </mxCell>
                <mxCell id="0F4StWGrC1xZ_1egnDAh-15" value="新表" style="text;html=1;strokeColor=none;fillColor=none;align=center;verticalAlign=middle;whiteSpace=wrap;rounded=0;" parent="1" vertex="1">
                    <mxGeometry x="430" y="380" width="40" height="20" as="geometry"/>
                </mxCell>
                <mxCell id="0F4StWGrC1xZ_1egnDAh-16" value="" style="endArrow=classic;html=1;exitX=1;exitY=0.5;exitDx=0;exitDy=0;" parent="1" source="0F4StWGrC1xZ_1egnDAh-4" edge="1">
                    <mxGeometry width="50" height="50" relative="1" as="geometry">
                        <mxPoint x="570" y="570" as="sourcePoint"/>
                        <mxPoint x="610" y="820" as="targetPoint"/>
                    </mxGeometry>
                </mxCell>
                <mxCell id="0F4StWGrC1xZ_1egnDAh-17" value="" style="endArrow=classic;html=1;exitX=0.625;exitY=1.007;exitDx=0;exitDy=0;exitPerimeter=0;" parent="1" source="0F4StWGrC1xZ_1egnDAh-13" edge="1">
                    <mxGeometry width="50" height="50" relative="1" as="geometry">
                        <mxPoint x="370" y="800" as="sourcePoint"/>
                        <mxPoint x="600" y="820" as="targetPoint"/>
                    </mxGeometry>
                </mxCell>
                <mxCell id="0F4StWGrC1xZ_1egnDAh-18" value="把新的数据left join 7天前的每日数据,减去7天前的数据,可以求出最新的7天数据" style="whiteSpace=wrap;html=1;aspect=fixed;" parent="1" vertex="1">
                    <mxGeometry x="530" y="830" width="140" height="140" as="geometry"/>
                </mxCell>
                <mxCell id="0F4StWGrC1xZ_1egnDAh-20" value="" style="endArrow=classic;html=1;exitX=1;exitY=0.5;exitDx=0;exitDy=0;" parent="1" source="0F4StWGrC1xZ_1egnDAh-5" edge="1">
                    <mxGeometry width="50" height="50" relative="1" as="geometry">
                        <mxPoint x="920" y="470" as="sourcePoint"/>
                        <mxPoint x="900" y="1120.800048828125" as="targetPoint"/>
                    </mxGeometry>
                </mxCell>
                <mxCell id="0F4StWGrC1xZ_1egnDAh-21" value="" style="endArrow=classic;html=1;exitX=0.5;exitY=1;exitDx=0;exitDy=0;" parent="1" source="0F4StWGrC1xZ_1egnDAh-18" edge="1">
                    <mxGeometry width="50" height="50" relative="1" as="geometry">
                        <mxPoint x="680" y="1070" as="sourcePoint"/>
                        <mxPoint x="890" y="1120" as="targetPoint"/>
                    </mxGeometry>
                </mxCell>
                <mxCell id="0F4StWGrC1xZ_1egnDAh-22" value="与7天前同理" style="whiteSpace=wrap;html=1;aspect=fixed;" parent="1" vertex="1">
                    <mxGeometry x="850" y="1120" width="80" height="80" as="geometry"/>
                </mxCell>
                <mxCell id="0F4StWGrC1xZ_1egnDAh-23" value="最近7天+今天-7天前" style="text;html=1;strokeColor=none;fillColor=none;align=center;verticalAlign=middle;whiteSpace=wrap;rounded=0;" parent="1" vertex="1">
                    <mxGeometry x="540" y="940" width="130" height="20" as="geometry"/>
                </mxCell>
            </root>
        </mxGraphModel>
    </diagram>
</mxfile>